<?xml version="1.0" encoding="UTF-8" standalone="no"?><svg width="170" height="43" viewBox="0 0 170 43" fill="none" xmlns="http://www.w3.org/2000/svg">
<g clip-path="url(#clip0_52_551)">
<path d="M33.608 31.0645C32.3973 29.9959 31.7926 28.5772 31.7939 26.8084H35.7356C35.7356 27.5527 35.9799 28.1518 36.4686 28.6058C36.9573 29.0597 37.6086 29.2864 38.4223 29.2858H41.5285C42.3187 29.2858 42.9404 29.1518 43.3938 28.8839C43.8471 28.616 44.0741 28.2498 44.0747 27.7852V27.0177C44.0745 26.857 44.0383 26.6984 43.9688 26.5535C43.8992 26.4086 43.7981 26.2812 43.6729 26.1805C43.4056 25.9479 43.0393 25.7851 42.5742 25.6921L36.5384 24.6455C35.1895 24.4129 34.1196 23.9186 33.3289 23.1626C32.5381 22.4066 32.1418 21.5284 32.14 20.528V19.3772C32.14 17.9352 32.7155 16.7953 33.8666 15.9574C35.0177 15.1195 36.6054 14.7012 38.6297 14.7025H41.4206C43.2583 14.7025 44.7467 15.2023 45.886 16.2021C47.0253 17.2019 47.595 18.5161 47.595 20.1447H43.6561C43.6561 19.5158 43.4524 19.0172 43.0449 18.6441C42.6374 18.2711 42.0969 18.086 41.4225 18.086H38.666C37.8529 18.086 37.2253 18.2137 36.7831 18.4692C36.3409 18.7248 36.1195 19.0851 36.1188 19.5502V20.2489C36.1185 20.4098 36.1546 20.5687 36.2243 20.7137C36.2941 20.8587 36.3957 20.986 36.5217 21.0862C36.8258 21.3353 37.1947 21.4925 37.585 21.5392L43.8301 22.6556C45.1083 22.9105 46.1316 23.3986 46.9001 24.1199C47.6685 24.8412 48.0512 25.6908 48.048 26.6689V27.9601C48.048 29.4027 47.4551 30.5482 46.2693 31.3967C45.0835 32.2451 43.502 32.6696 41.5248 32.6702H38.4223C36.4221 32.6702 34.8174 32.135 33.608 31.0645Z" fill="#000228"/>
<path d="M51.8362 30.8208C50.5456 29.5872 49.9003 27.9592 49.9003 25.9367V21.5401C49.9003 20.1912 50.1909 18.9992 50.772 17.9641C51.3457 16.9374 52.2068 16.1007 53.2494 15.5565C54.318 14.9884 55.5509 14.7037 56.9482 14.7025H59.7391C61.7393 14.7025 63.3502 15.278 64.572 16.4291C65.7938 17.5802 66.4044 19.0978 66.4038 20.982H62.4602C62.4602 20.1435 62.21 19.4631 61.7095 18.9409C61.209 18.4187 60.5519 18.157 59.7382 18.1557H56.9789C56.0722 18.1557 55.3339 18.4931 54.7639 19.1679C54.1939 19.8427 53.909 20.7147 53.909 21.7839V25.6911C53.909 26.738 54.1939 27.5868 54.7639 28.2374C55.3339 28.8879 56.084 29.2136 57.0143 29.2142H59.7698C60.6294 29.2142 61.3213 28.9004 61.8453 28.2727C62.3694 27.6451 62.6311 26.8311 62.6305 25.8307H66.5731C66.5731 27.8773 65.951 29.5286 64.7069 30.7845C63.4628 32.0404 61.8171 32.669 59.7698 32.6702H56.9789C54.8405 32.6702 53.1253 32.0538 51.8335 30.8208" fill="#000228"/>
<path d="M70.0478 31.3259C68.9668 30.431 68.4263 29.239 68.4263 27.7499V26.4977C68.4263 25.0315 68.99 23.8566 70.1175 22.9728C71.2451 22.089 72.728 21.6471 74.5662 21.6471H76.7282C77.4347 21.6543 78.1377 21.7481 78.8214 21.9262C79.5108 22.0915 80.1783 22.3373 80.8104 22.6583V20.4926C80.8104 19.7726 80.5778 19.1914 80.1127 18.7492C79.6475 18.307 79.0428 18.0859 78.2986 18.0859H75.3691C74.6006 18.0859 73.9842 18.2664 73.5196 18.6274C73.2981 18.7892 73.1189 19.0023 72.9974 19.2483C72.8759 19.4944 72.8157 19.7661 72.8219 20.0405H68.9147C68.9147 18.436 69.5076 17.1451 70.6934 16.1677C71.8792 15.1902 73.4381 14.7015 75.37 14.7015H78.2995C80.2538 14.7015 81.8241 15.2308 83.0105 16.2895C84.197 17.3482 84.7899 18.7492 84.7893 20.4926V32.3911H81.0551V30.1928C80.4962 30.9363 79.7814 31.5484 78.961 31.9864C78.1243 32.4398 77.2991 32.6665 76.4854 32.6665H74.3216C72.5534 32.6665 71.1288 32.2187 70.0478 31.3231V31.3259ZM76.7282 29.5267C77.6273 29.5371 78.5066 29.2626 79.24 28.7425C79.9721 28.2362 80.5226 27.5084 80.8104 26.6661V25.8288C80.4153 25.5032 79.8571 25.2415 79.1358 25.0436C78.3964 24.8441 77.6336 24.7446 76.8678 24.7478H74.6704C73.9727 24.7478 73.4086 24.9221 72.9782 25.2706C72.7704 25.4309 72.6032 25.6379 72.4904 25.8749C72.3776 26.1118 72.3222 26.3721 72.3289 26.6344V27.614C72.3202 27.8827 72.3759 28.1495 72.4913 28.3922C72.6067 28.6349 72.7784 28.8466 72.9922 29.0095C73.4344 29.3587 74.0158 29.5329 74.7365 29.5323L76.7282 29.5267Z" fill="#000228"/>
<path d="M88.2937 31.1492C87.3988 30.3243 86.951 29.016 86.9504 27.2243V7.96707H90.9628V27.0559C90.9628 27.7313 91.1023 28.2122 91.3814 28.5034C91.6605 28.7946 92.1256 28.9397 92.7768 28.9397H94.4514V32.3939H92.5685C90.6142 32.3939 89.1893 31.9809 88.2937 31.1548" fill="#000228"/>
<path d="M98.7949 31.8674C97.7559 31.3703 96.8834 30.5824 96.2831 29.5993C95.6902 28.6225 95.3935 27.4944 95.3928 26.2149V21.5402C95.3928 20.1912 95.6896 18.9992 96.2831 17.9641C96.8702 16.9357 97.7426 16.0994 98.7949 15.5565C99.8766 14.9884 101.127 14.7037 102.547 14.7025H105.338C107.453 14.7025 109.151 15.3189 110.431 16.5519C111.711 17.7848 112.351 19.4256 112.349 21.4741V24.9618H99.4052V26.2186C99.4052 27.1489 99.6899 27.8932 100.259 28.4514C100.83 29.0095 101.59 29.2886 102.547 29.2886H105.232C106.162 29.2886 106.912 29.0619 107.482 28.6086C107.757 28.3983 107.978 28.1256 108.127 27.8131C108.276 27.5006 108.348 27.1572 108.338 26.8112H112.28C112.28 28.5788 111.628 29.9975 110.326 31.0674C109.024 32.1372 107.314 32.6724 105.197 32.673H102.547C101.127 32.673 99.8766 32.4054 98.7949 31.8702V31.8674ZM108.407 21.9588V21.4741C108.407 20.4502 108.128 19.6244 107.57 18.9967C107.011 18.3691 106.279 18.0549 105.371 18.0543H102.547C101.59 18.0543 100.815 18.3855 100.221 19.0479C99.6269 19.7103 99.3305 20.5785 99.3317 21.6527V21.9662L108.407 21.9588Z" fill="#000228"/>
<path d="M116.5 18.4348H113.499V14.9815H116.5V13.7601C116.5 11.8753 117.064 10.4159 118.193 9.38207C119.321 8.3482 120.908 7.83065 122.955 7.82941H125.083V11.2483H123.025C122.165 11.2483 121.529 11.4529 121.123 11.8595C120.717 12.266 120.513 12.9116 120.513 13.7954V14.9815H124.699V18.4348H120.513V32.3893H116.5V18.4348Z" fill="#000228"/>
<path d="M128.083 31.1976C127.187 30.3721 126.739 29.0638 126.738 27.2726V8.01544H130.752V27.0987C130.752 27.7741 130.891 28.2566 131.169 28.5462C131.448 28.8358 131.913 28.9813 132.565 28.9825H134.239V32.4367H132.356C130.401 32.4367 128.976 32.0237 128.083 31.1976Z" fill="#000228"/>
<path d="M138.842 31.7582C137.803 31.2608 136.93 30.473 136.33 29.4901C135.737 28.5127 135.44 27.3845 135.439 26.1057V21.43C135.439 20.0823 135.736 18.8903 136.33 17.8539C136.917 16.8258 137.789 15.9899 138.842 15.4473C139.923 14.8779 141.174 14.5929 142.593 14.5923H145.383C147.499 14.5923 149.197 15.2088 150.477 16.4418C151.757 17.6747 152.397 19.3145 152.396 21.3612V24.8535H139.452V26.1094C139.452 27.0397 139.737 27.784 140.306 28.3421C140.877 28.9003 141.637 29.1794 142.593 29.1794H145.278C146.209 29.1794 146.959 28.9527 147.529 28.4994C147.804 28.2891 148.025 28.0164 148.173 27.7039C148.322 27.3914 148.395 27.048 148.385 26.702H152.326C152.326 28.4696 151.675 29.8886 150.373 30.9591C149.07 32.0295 147.361 32.5632 145.244 32.5601H142.593C141.174 32.5601 139.924 32.2928 138.842 31.7582ZM148.453 21.8496V21.3612C148.453 20.3366 148.174 19.5108 147.616 18.8838C147.058 18.2568 146.326 17.9426 145.419 17.9414H142.593C141.637 17.9414 140.864 18.2729 140.272 18.9359C139.681 19.5989 139.384 20.4653 139.383 21.5351V21.8496H148.453Z" fill="#000228"/>
<path d="M158.801 23.5747L152.451 15.0271H156.917L161.104 20.6433L165.29 15.0271H169.755L163.407 23.5747L170 32.4367H165.499L161.104 26.5052L156.709 32.4367H152.208L158.801 23.5747Z" fill="#000228"/>
<path fill-rule="evenodd" clip-rule="evenodd" d="M0.000999451 10.9133C0.000999451 8.14568 2.66817 6.26182 5.5586 5.02732H5.57535C6.581 4.67566 7.48711 4.32773 8.40625 4.00399C9.30863 3.69141 10.1878 3.41604 10.8613 3.21416C14.0057 2.27084 16.0356 1.6094 21.1262 0.0139357C21.1262 -0.0372307 21.1262 0.0641719 21.1262 0.0641719V5.04127C21.1242 6.06806 20.7929 7.06713 20.181 7.89171C19.0898 9.41833 17.1938 10.5319 15.2439 11.3422C13.5573 12.0436 11.8335 12.5181 10.558 12.8307C9.99095 12.9732 9.43197 13.1462 8.88349 13.3488C7.93646 13.7006 7.02036 14.1307 6.14469 14.6345C5.72109 14.8758 5.2975 15.1372 4.8739 15.4188C3.25456 16.496 1.63398 17.8583 0.0121626 19.5056C0.0121626 17.7231 0.142405 15.949 0.142405 14.1666C0.142405 12.7097 0.0493745 12.6511 0.0121626 11.7022C0.00472019 11.4938 0.000999451 11.2408 0.000999451 10.9133Z" fill="url(#paint0_linear_52_551)"/>
<path fill-rule="evenodd" clip-rule="evenodd" d="M0.14338 14.1703C0.14338 12.7135 0.0503502 12.6548 0.0131382 11.7059C0.0884925 11.7273 0.160125 11.7497 0.23548 11.7785C4.03575 13.2177 15.244 11.3403 15.244 11.3403C13.5574 12.0418 11.8335 12.5162 10.5581 12.8288C9.991 12.9714 9.43202 13.1443 8.88354 13.347C7.93651 13.6988 7.02041 14.1288 6.14474 14.6327C4.1018 15.8011 2.05762 17.4248 0.012207 19.5037C0.0131373 17.7268 0.14338 15.9528 0.14338 14.1703Z" fill="#EB2B66"/>
<path fill-rule="evenodd" clip-rule="evenodd" d="M0.000930786 10.9831C0.000930786 8.21548 2.59833 6.33163 5.4897 5.09712H5.50644C6.43039 4.70382 7.37548 4.36219 8.33734 4.07379C8.33734 4.07379 2.11457 11.2148 4.8664 15.4765C3.24768 16.5537 1.65779 17.9957 0.0344216 19.647C0.0344216 17.8645 0.0744252 16.0188 0.0744252 14.2392C0.0744252 12.7823 0.0474457 12.7237 0.0139549 11.7748C0.00465193 11.5636 0.000930786 11.3078 0.000930786 10.9831Z" fill="#EB2B66"/>
<path fill-rule="evenodd" clip-rule="evenodd" d="M4.21332 12.3162C2.64484 12.2883 1.24753 12.1358 0.306066 11.7785C0.230712 11.7497 0.159079 11.7274 0.083725 11.706C0.117216 12.6549 0.213968 12.7135 0.213968 14.1703C0.213968 15.9518 0.083725 17.7269 0.083725 19.5084C0.176755 19.4153 0.276297 19.3149 0.372118 19.22C1.74632 17.8308 3.25139 16.5774 4.86639 15.4774C4.25891 14.5294 4.09796 13.4391 4.21332 12.3162Z" fill="#DC1476"/>
<path fill-rule="evenodd" clip-rule="evenodd" d="M0.000930786 10.9133C0.000930786 10.9133 2.85695 13.7833 6.14556 14.6345C4.10262 15.803 2.05844 17.4267 0.0130251 19.5056C0.0130251 17.7231 0.143266 15.949 0.143266 14.1666C0.143266 12.3841 0.000930786 12.6986 0.000930786 10.9133Z" fill="#B40A6A"/>
<path fill-rule="evenodd" clip-rule="evenodd" d="M8.88249 13.3526C16.3946 9.04995 16.4933 5.50551 21.1243 0.0651245V5.04222C21.1243 9.8621 14.0856 11.9581 10.558 12.8344C9.99057 12.9769 9.43128 13.1499 8.88249 13.3526Z" fill="#FFC158"/>
<path d="M15.2439 11.3403C15.2439 11.3403 13.5228 11.6287 11.2008 11.8929C10.5142 12.372 9.74953 12.8577 8.88435 13.3526C9.43283 13.1499 9.99182 12.977 10.5589 12.8344C11.8297 12.5181 13.5563 12.0446 15.2448 11.3459L15.2439 11.3403Z" fill="#F48166"/>
<path fill-rule="evenodd" clip-rule="evenodd" d="M5.57714 5.02175C11.5218 2.81601 13.3963 2.54065 21.1243 -0.00186157C21.1243 0.639115 21.1243 4.97524 21.1243 4.97524C21.134 6.02362 20.8037 7.04692 20.1828 7.89173C19.1074 5.82088 16.6347 4.54265 11.3841 4.4645C8.0843 4.4152 5.57714 5.02175 5.57714 5.02175Z" fill="#FFC158"/>
<path fill-rule="evenodd" clip-rule="evenodd" d="M21.1242 0.0651245C19.431 2.0541 18.3435 3.78632 17.2783 5.40225C18.7277 5.99113 19.6357 6.8377 20.1827 7.89173C20.3993 7.58919 20.5839 7.26494 20.7335 6.92422C20.7335 6.91585 20.74 6.9084 20.7437 6.90003L20.78 6.807C20.9313 6.42288 21.0354 6.02176 21.0898 5.6125C21.0944 5.57157 21.1 5.53063 21.1037 5.48877C21.1177 5.34364 21.1242 5.19572 21.1242 5.04595V0.0651245Z" fill="#FFDE70"/>
<path fill-rule="evenodd" clip-rule="evenodd" d="M21.1252 31.3073C21.1252 34.075 18.4571 35.9588 15.5667 37.1933H15.5537L15.5369 37.1989L15.1294 37.3533L14.8187 37.4752C14.2959 37.6789 13.8707 37.8473 13.4177 38.0148L13.0307 38.1497H13.0223H13.013H13.0056L12.7404 38.2362C12.0809 38.4446 11.5003 38.6297 10.9468 38.8074L10.5877 38.9228L10.4017 38.9823C9.47137 39.2809 8.60154 39.5544 7.69264 39.8391L7.57635 39.8754C5.60784 40.4903 3.43001 41.1611 0.00279085 42.2514V37.1719C0.0013463 36.2747 0.255636 35.3957 0.735865 34.6378C0.756332 34.6043 0.777729 34.5718 0.800056 34.5373L0.871689 34.4322C0.896807 34.3959 0.920065 34.3596 0.946113 34.3234C2.03642 32.7967 3.9333 31.6832 5.88321 30.872C7.56984 30.1705 9.29368 29.6961 10.5691 29.3835C11.1362 29.2409 11.6952 29.068 12.2437 28.8653C13.191 28.5135 14.1074 28.0835 14.9834 27.5796C15.4067 27.3387 15.8309 27.0754 16.2532 26.7945C17.8726 25.7172 19.4932 24.3552 21.115 22.7086C21.115 24.491 20.9857 26.2651 20.9857 28.0476C20.9857 29.5044 21.0787 29.563 21.115 30.5119C21.1206 30.7268 21.1252 30.9817 21.1252 31.3073Z" fill="url(#paint1_linear_52_551)"/>
<path fill-rule="evenodd" clip-rule="evenodd" d="M20.9829 28.0504C20.9829 29.5072 21.0759 29.5658 21.1131 30.5147C21.0368 30.4933 20.9661 30.471 20.8908 30.4421C17.0905 29.003 5.88228 30.8803 5.88228 30.8803C7.56798 30.1789 9.29275 29.7044 10.5673 29.3918C11.1344 29.2495 11.6934 29.0766 12.2418 28.8737C13.1891 28.5217 14.1055 28.0917 14.9815 27.588C17.0238 26.4195 19.068 24.7959 21.1141 22.7169C21.1131 24.4938 20.9829 26.2679 20.9829 28.0504Z" fill="#1949B1"/>
<path fill-rule="evenodd" clip-rule="evenodd" d="M21.1252 31.3074C21.1252 34.075 18.4571 35.9589 15.5676 37.1934C15.5676 37.1934 14.2057 37.7339 13.0102 38.1553C13.0102 38.1553 19.0032 31.059 16.2514 26.7982C17.8701 25.7209 19.4907 24.3586 21.1131 22.7114C21.1131 24.4938 20.9829 26.2679 20.9829 28.0504C20.9829 29.5072 21.0759 29.5658 21.1131 30.5147C21.1215 30.7269 21.1252 30.9827 21.1252 31.3074Z" fill="#1848B2"/>
<path fill-rule="evenodd" clip-rule="evenodd" d="M20.7652 23.0603L20.6461 23.1775L20.4182 23.4017L20.2796 23.5347L20.0638 23.7394L19.9242 23.8705C19.8312 23.9524 19.7484 24.0333 19.66 24.1134L19.447 24.305C19.3846 24.3617 19.3223 24.4176 19.2609 24.4725C19.1995 24.5273 19.1372 24.5813 19.0748 24.6343L18.9213 24.7674C18.8562 24.8232 18.7911 24.879 18.7251 24.9339L18.5883 25.0483C18.5185 25.106 18.4497 25.1646 18.3799 25.2213L18.3622 25.2353C18.1979 25.3693 18.0338 25.5004 17.8701 25.6288L17.7427 25.7274L17.5426 25.88L17.3938 25.9926L17.2077 26.1293L17.0142 26.2698L16.8719 26.3721C16.7553 26.4558 16.6403 26.5355 16.5268 26.6112L16.4709 26.6493L16.2514 26.7982C16.8542 27.7285 17.0375 28.8021 16.9556 29.9035C18.5371 29.9305 19.9428 30.0831 20.8908 30.4422C20.9661 30.471 21.0368 30.4933 21.1131 30.5147C21.0787 29.5658 20.9829 29.5072 20.9829 28.0504C20.9829 26.2679 21.1131 24.4938 21.1131 22.7114C20.9972 22.8299 20.8812 22.9461 20.7652 23.0603Z" fill="#2F2E7B"/>
<path fill-rule="evenodd" clip-rule="evenodd" d="M21.1253 31.3074C21.1253 31.3074 18.2693 28.4374 14.9807 27.5862C17.023 26.4177 19.0672 24.794 21.1132 22.7151C21.1132 24.4976 20.983 26.2717 20.983 28.0541C20.983 29.8366 21.1253 29.5221 21.1253 31.3074Z" fill="#292361"/>
<path fill-rule="evenodd" clip-rule="evenodd" d="M21.1253 31.3074C21.1253 31.3074 18.2693 28.4374 14.9807 27.5862C17.023 26.4177 19.0672 24.794 21.1132 22.7151C21.1132 24.4976 20.983 26.2717 20.983 28.0541C20.983 29.8366 21.1253 29.5221 21.1253 31.3074Z" fill="#292361"/>
<path fill-rule="evenodd" clip-rule="evenodd" d="M12.2409 28.8681C6.33534 32.3465 0.00186157 42.2588 0.00186157 42.2588V37.1785C0.00186157 32.3586 7.03957 30.2626 10.5673 29.3863C11.1341 29.2439 11.6928 29.071 12.2409 28.8681Z" fill="#50CEFB"/>
<path fill-rule="evenodd" clip-rule="evenodd" d="M5.88228 30.8803C5.88228 30.8803 7.74287 30.5687 10.1998 30.297C10.8453 29.7728 11.5274 29.2953 12.2409 28.8681C11.6925 29.071 11.1335 29.244 10.5663 29.3863C9.29554 29.7026 7.56984 30.1761 5.88135 30.8748L5.88228 30.8803Z" fill="#3B9AE0"/>
<path fill-rule="evenodd" clip-rule="evenodd" d="M21.1252 22.1132V30.8794C19.9633 28.4411 14.5722 26.2112 11.7292 25.6428V16.8412C12.8949 17.0477 14.334 17.3175 15.7295 17.7129C17.1882 18.151 18.6237 18.7269 19.58 19.4042L19.5968 19.4172C19.8567 19.5964 20.0936 19.807 20.3019 20.0442C20.3621 20.1143 20.418 20.1879 20.4694 20.2647C20.7261 20.648 20.9187 20.9289 21.0276 21.3029C21.0331 21.3224 21.0387 21.342 21.0434 21.3615C21.0555 21.409 21.0666 21.4545 21.0759 21.5048L21.0843 21.5504C21.1136 21.7365 21.1273 21.9248 21.1252 22.1132Z" fill="#22C1C0"/>
<path d="M21.1252 22.1132V30.8794C21.1252 23.0993 11.7292 16.8412 11.7292 16.8412C12.8949 17.0477 14.334 17.3175 15.7295 17.7129C17.1715 18.1213 18.5688 18.6618 19.58 19.4042L19.5967 19.4172C19.8516 19.6028 20.0878 19.8128 20.3019 20.0442C20.6382 20.3997 20.8856 20.8298 21.0238 21.2992C21.0294 21.3187 21.035 21.3383 21.0396 21.3578C21.0517 21.4052 21.0629 21.4508 21.0722 21.5011L21.0806 21.5466C21.1145 21.7335 21.1294 21.9233 21.1252 22.1132Z" fill="#68DBC3"/>
<path d="M21.1252 22.1132V30.8803C19.9633 28.4411 14.5731 26.2121 11.7339 25.6427C11.7339 25.6427 20.3856 24.038 20.4703 20.2293C20.8833 20.8433 21.1252 21.2257 21.1252 22.1132Z" fill="#68DBC3"/>
<path d="M21.1206 21.9039C21.0836 21.2914 20.8559 20.7058 20.4694 20.2293C20.3763 21.4648 19.4907 22.4565 18.3111 23.237C19.887 25.4334 21.1243 28.0559 21.1243 30.8803V22.1132C21.1252 22.0425 21.1234 21.9727 21.1206 21.9039Z" fill="#A9F0C2"/>
<path fill-rule="evenodd" clip-rule="evenodd" d="M13.0307 38.1488H13.0223H13.013H13.0056L12.7404 38.2353C12.1562 38.4213 11.5552 38.613 10.9468 38.8065L10.5877 38.9218L7.69264 39.8382L7.57635 39.8745C3.53421 41.1508 0.00279129 42.2542 0.00279129 42.2542V37.0175C0.00279129 37.0175 -0.0567479 35.9012 0.736797 34.6453C0.757264 34.6118 0.778661 34.5792 0.800988 34.5448C0.847503 34.475 0.894017 34.4052 0.948905 34.3345C2.02247 37.0212 6.43767 38.3469 13.5284 37.492L13.8605 37.451C14.1396 37.4148 14.4308 37.3738 14.7238 37.331C14.828 37.3161 14.9322 37.2994 15.0383 37.2827C15.2039 37.2578 15.3698 37.2312 15.536 37.2026H15.5527H15.5481C15.3909 37.2603 15.2522 37.3106 15.1285 37.3571L14.8187 37.4752" fill="#65E3FD"/>
<path fill-rule="evenodd" clip-rule="evenodd" d="M0.00279278 42.256C0.0334926 42.2086 1.60012 39.7638 3.88958 36.8891C2.38157 36.3012 1.38522 35.4314 0.947046 34.3336C0.885026 34.4173 0.827347 34.5001 0.77401 34.582C0.270317 35.3543 0.00204511 36.2564 0.00186157 37.1785V42.256H0.00279278Z" fill="#83F4FF"/>
<path fill-rule="evenodd" clip-rule="evenodd" d="M15.549 37.1961C15.3918 37.2538 15.2476 37.3143 15.1239 37.3608C15.0001 37.4073 13.9294 37.826 13.0335 38.1423H13.0251H13.0158C13.0316 38.1246 13.2326 37.8846 13.5368 37.479L13.8642 37.438C14.1433 37.4017 14.4345 37.3608 14.7276 37.318C14.8317 37.3031 14.9369 37.2864 15.042 37.2696C15.2076 37.2448 15.3735 37.2182 15.5397 37.1896L15.549 37.1961Z" fill="#3B9AE0"/>
<path fill-rule="evenodd" clip-rule="evenodd" d="M0.00372314 20.1075V11.3403C1.16567 13.7796 5.5697 15.4569 8.40897 16.0262V25.4799C5.08594 25.0967 2.20388 23.8547 0.878205 22.3327C0.324796 21.7226 0.0137477 20.9311 0.00372314 20.1075Z" fill="#9119F7"/>
<path d="M0.00372293 20.1075V11.3403C0.00372293 19.1223 8.40897 25.4809 8.40897 25.4809C5.33154 25.1087 -0.103261 23.4091 0.00372293 20.1075Z" fill="#C64DFB"/>
<path d="M0.0130234 20.1093V11.3422C1.17497 13.7814 5.579 15.4578 8.41921 16.0281C8.41921 16.0281 0.855875 18.0031 0.65586 22.0564C0.244668 21.4424 0.0130234 20.9968 0.0130234 20.1093Z" fill="#C64DFB"/>
<path d="M0.653072 22.0564C0.700517 20.8229 1.44848 19.7781 2.46343 18.9232C1.08101 16.7296 0.00372385 14.1247 0.00372385 11.3403V20.1075C0.00363623 20.2666 0.0117103 20.4255 0.0279125 20.5838C0.106049 21.1203 0.321384 21.6276 0.653072 22.0564Z" fill="#E977FD"/>
<path fill-rule="evenodd" clip-rule="evenodd" d="M7.88428 4.64405C8.17453 4.27193 8.36989 4.04866 8.40245 4.01144L8.31873 4.04028C7.36703 4.4124 6.48976 4.68219 5.58365 5.02175C6.34314 4.8544 7.11114 4.72832 7.88428 4.64405Z" fill="#F48166"/>
<path d="M15.4969 37.1143C15.5287 37.1115 15.5583 37.097 15.5799 37.0735C15.6015 37.05 15.6135 37.0192 15.6135 36.9873C15.6135 36.9554 15.6015 36.9246 15.5799 36.9011C15.5583 36.8776 15.5287 36.863 15.4969 36.8603C15.4651 36.863 15.4355 36.8776 15.4139 36.9011C15.3923 36.9246 15.3803 36.9554 15.3803 36.9873C15.3803 37.0192 15.3923 37.05 15.4139 37.0735C15.4355 37.097 15.4651 37.1115 15.4969 37.1143Z" fill="#1848B2"/>
</g>
<defs>
<linearGradient id="paint0_linear_52_551" x1="0.000999451" y1="9.75417" x2="21.1271" y2="9.75417" gradientUnits="userSpaceOnUse">
<stop stop-color="#FF057E"/>
<stop offset="0.12" stop-color="#FF2768"/>
<stop offset="0.35" stop-color="#FF6144"/>
<stop offset="0.56" stop-color="#FF8F26"/>
<stop offset="0.74" stop-color="#FFB011"/>
<stop offset="0.9" stop-color="#FFC505"/>
<stop offset="1" stop-color="#FFCC00"/>
</linearGradient>
<linearGradient id="paint1_linear_52_551" x1="21.1252" y1="32.4851" x2="0.00186059" y2="32.4851" gradientUnits="userSpaceOnUse">
<stop stop-color="#0049E7"/>
<stop offset="0.32" stop-color="#0E78EF"/>
<stop offset="1" stop-color="#2DDAFF"/>
</linearGradient>
<clipPath id="clip0_52_551">
<rect width="170" height="42.2616" fill="white"/>
</clipPath>
</defs>
</svg>
